<?xml version="1.0" encoding="UTF-8"?>
<svg xmlns="http://www.w3.org/2000/svg" version="1.1" viewBox="0 0 1000 1000">
  <!-- Generator: Adobe Illustrator 29.8.6, SVG Export Plug-In . SVG Version: 2.1.1 Build 1)  -->
  <defs>
    <style>
      .st0 {
        fill: #fff;
      }

      .st1 {
        fill: #456981;
      }

      .st2 {
        fill: #0b0b0e;
      }

      .st3 {
        display: none;
      }
    </style>
  </defs>
  <g id="White_Monogram" class="st3">
    <path d="M430.6,351.3v312.5c0,8.4,1.2,14.5,3.6,18.2,2.4,3.8,5.9,6.6,10.7,8.6l15.9,4.6c8.4,3.4,12.6,8.8,12.6,16.4,0,11.5-7.3,17.2-21.8,17.2h-163.2c-7.6,0-13.1-1.5-16.6-4.6-3.5-3.1-5.2-7.1-5.2-12.2s1.2-7.3,3.6-10.1c2.4-2.8,6.1-5.2,11.1-7.1l16.8-4.2c5-1.7,8.7-4.5,11.1-8.4,2.4-3.9,3.6-10.1,3.6-18.5v-243.3c0-7-1-12-3.1-14.9-2.1-2.9-5.5-4.8-10.3-5.7l-22.2-1.3c-4.8-1.4-8.3-3.3-10.5-5.7-2.2-2.4-3.4-5.5-3.4-9.4s1.3-7.7,3.8-10.5c2.5-2.8,7.6-5.5,15.1-8l81-28.9c10.1-3.9,18.2-6.7,24.3-8.4,6.1-1.7,12-2.5,17.6-2.5,8.4,0,14.7,2.4,19.1,7.1,4.3,4.8,6.5,11.1,6.5,18.9ZM417.6,444l-18-18.9,16.4-14.3c34.7-31.6,64.5-54,89.3-67.3,24.9-13.3,48.5-19.9,70.9-19.9,34.1,0,60.6,11.3,79.5,34s30.3,53,34.2,91l23.9,214.3c.8,8.4,2.3,14.7,4.4,18.9,2.1,4.2,5.8,7.3,11.1,9.2l15.1,3.8c4.8,2,8.4,4.3,10.9,7.1,2.5,2.8,3.8,6.2,3.8,10.1s-1.7,9.1-5,12.2c-3.4,3.1-9,4.6-16.8,4.6h-164.4c-15.1,0-22.7-5.7-22.7-17.2s4.2-13,12.6-16.4l16.4-4.6c5.6-2,9.7-5,12.4-9,2.7-4,3.6-10.3,2.7-18.7l-22.2-197.6c-2.8-24-8.9-42.1-18.2-54.1-9.4-12-23.4-18-42.2-18s-23.6,3-36.5,9c-12.9,6-26.3,15-40.3,27.1l-17.2,14.7Z"/>
    <circle class="st1" cx="759" cy="263.4" r="60.3"/>
  </g>
  <g id="White_Monogram_copy">
    <rect class="st2" x="0" y="0" width="1000" height="1000"/>
    <path class="st0" d="M430.6,351.3v312.5c0,8.4,1.2,14.5,3.6,18.2,2.4,3.8,5.9,6.6,10.7,8.6l15.9,4.6c8.4,3.4,12.6,8.8,12.6,16.4,0,11.5-7.3,17.2-21.8,17.2h-163.2c-7.6,0-13.1-1.5-16.6-4.6-3.5-3.1-5.2-7.1-5.2-12.2s1.2-7.3,3.6-10.1c2.4-2.8,6.1-5.2,11.1-7.1l16.8-4.2c5-1.7,8.7-4.5,11.1-8.4,2.4-3.9,3.6-10.1,3.6-18.5v-243.3c0-7-1-12-3.1-14.9-2.1-2.9-5.5-4.8-10.3-5.7l-22.2-1.3c-4.8-1.4-8.3-3.3-10.5-5.7-2.2-2.4-3.4-5.5-3.4-9.4s1.3-7.7,3.8-10.5c2.5-2.8,7.6-5.5,15.1-8l81-28.9c10.1-3.9,18.2-6.7,24.3-8.4,6.1-1.7,12-2.5,17.6-2.5,8.4,0,14.7,2.4,19.1,7.1,4.3,4.8,6.5,11.1,6.5,18.9ZM417.6,444l-18-18.9,16.4-14.3c34.7-31.6,64.5-54,89.3-67.3,24.9-13.3,48.5-19.9,70.9-19.9,34.1,0,60.6,11.3,79.5,34s30.3,53,34.2,91l23.9,214.3c.8,8.4,2.3,14.7,4.4,18.9,2.1,4.2,5.8,7.3,11.1,9.2l15.1,3.8c4.8,2,8.4,4.3,10.9,7.1,2.5,2.8,3.8,6.2,3.8,10.1s-1.7,9.1-5,12.2c-3.4,3.1-9,4.6-16.8,4.6h-164.4c-15.1,0-22.7-5.7-22.7-17.2s4.2-13,12.6-16.4l16.4-4.6c5.6-2,9.7-5,12.4-9,2.7-4,3.6-10.3,2.7-18.7l-22.2-197.6c-2.8-24-8.9-42.1-18.2-54.1-9.4-12-23.4-18-42.2-18s-23.6,3-36.5,9c-12.9,6-26.3,15-40.3,27.1l-17.2,14.7Z"/>
    <circle class="st1" cx="759" cy="263.4" r="60.3"/>
  </g>
</svg>