<?xml version="1.0" encoding="UTF-8"?>
<svg id="Layer_1" xmlns="http://www.w3.org/2000/svg" version="1.1" viewBox="0 0 1000 600">
  <!-- Generator: Adobe Illustrator 29.8.6, SVG Export Plug-In . SVG Version: 2.1.1 Build 1)  -->
  <defs>
    <style>
      .st0 {
        fill: #fff;
      }

      .st1 {
        fill: #456981;
      }

      .st2 {
        fill: #0b0b0e;
      }
    </style>
  </defs>
  <rect class="st2" x="0" width="1000" height="600"/>
  <g>
    <g>
      <path class="st0" d="M220.8,239.2v119.9c0,3.1.5,5.4,1.4,6.9.9,1.5,2.3,2.6,4.1,3.4l6.1,1.6c3.2,1.4,4.8,3.5,4.8,6.3,0,4.4-2.8,6.6-8.4,6.6h-62.2c-2.9,0-5-.6-6.3-1.8-1.3-1.2-2-2.7-2-4.5s.5-2.9,1.4-3.9c.9-1,2.3-1.9,4.3-2.7l6.4-1.6c1.9-.7,3.3-1.8,4.3-3.3.9-1.4,1.4-3.8,1.4-7v-93.5c0-2.7-.4-4.6-1.1-5.7-.8-1.1-2-1.8-3.9-2.2l-8.7-.5c-1.8-.5-3.1-1.2-3.9-2.1-.8-.9-1.2-2.1-1.2-3.7s.5-2.9,1.4-3.9c1-1,2.8-2,5.6-3l30.7-11.1c4-1.4,7.1-2.4,9.4-3.1,2.3-.6,4.5-1,6.7-1,3.2,0,5.6.9,7.3,2.7,1.7,1.8,2.5,4.2,2.5,7.1ZM216,274.5l-6.9-7.1,6.3-5.6c13.2-11.9,24.5-20.4,34.1-25.5,9.5-5.1,18.5-7.6,27-7.6,13.1,0,23.2,4.3,30.4,12.9,7.2,8.6,11.6,20.3,13.1,34.9l9.3,81.9c.2,3.3.7,5.8,1.6,7.4.9,1.6,2.3,2.7,4.3,3.4l5.8,1.6c1.9.8,3.4,1.6,4.3,2.7,1,1,1.4,2.3,1.4,3.9s-.7,3.3-2,4.5c-1.3,1.2-3.5,1.8-6.3,1.8h-63c-5.7,0-8.5-2.2-8.5-6.6s1.6-4.9,4.8-6.3l6.4-1.6c2-.7,3.6-1.9,4.7-3.5,1.1-1.6,1.4-4,1-7.3l-8.4-75.7c-1.2-9.2-3.6-16.1-7.2-20.8-3.6-4.7-9-7-16.1-7s-9.2,1.2-14.1,3.5c-4.9,2.3-10.1,5.8-15.6,10.4l-6.4,5.6Z"/>
      <path class="st0" d="M444.6,228.8c16.3,0,30.7,3.4,43.1,10.1,12.5,6.7,22.2,16.1,29.2,28,7,11.9,10.4,25.8,10.4,41.7s-3.6,28.5-10.8,40.5c-7.2,12-17.1,21.4-29.7,28.3-12.6,6.9-27.3,10.3-43.9,10.3s-30.9-3.4-43.3-10.2c-12.4-6.8-22.1-16.2-29.1-28.2-7-12-10.5-25.8-10.5-41.3s3.6-28.9,10.8-40.8c7.2-11.9,17.1-21.3,29.7-28.1,12.6-6.9,27.3-10.3,44-10.3ZM455.5,371.8c7.4-1.2,13.3-4.6,17.8-10.1,4.4-5.6,7.3-13.3,8.4-23.1,1.2-9.9.5-21.8-2.1-35.8-2.4-13.8-5.8-25.3-10.4-34.4-4.6-9.1-10.1-15.6-16.6-19.5-6.4-3.9-13.4-5.3-20.9-4.3-7.3,1.2-13.2,4.6-17.6,10.2-4.4,5.6-7.2,13.4-8.4,23.2-1.1,9.9-.5,21.8,1.8,35.8,2.5,13.8,6.1,25.3,10.8,34.4,4.7,9.1,10.3,15.6,16.6,19.6,6.4,4,13.2,5.3,20.5,4Z"/>
      <path class="st0" d="M613.3,239.2v119.9c0,3.1.5,5.4,1.4,7,.9,1.6,2.3,2.7,4.3,3.3l6.3,1.6c1.9.6,3.4,1.5,4.3,2.6,1,1.1,1.4,2.4,1.4,4s-.7,3.3-2.1,4.5c-1.4,1.2-3.5,1.8-6.3,1.8h-63.3c-2.9,0-5-.6-6.4-1.8-1.4-1.2-2.1-2.7-2.1-4.5s.5-2.9,1.4-3.9c.9-1,2.3-1.9,4.3-2.7l6.6-1.6c1.8-.7,3.2-1.8,4.2-3.3,1-1.4,1.4-3.8,1.4-7v-93.5c0-2.7-.4-4.6-1.2-5.7-.8-1.1-2.1-1.8-3.9-2.2l-8.7-.5c-1.8-.5-3.1-1.2-3.9-2.1-.8-.9-1.2-2.1-1.2-3.7s.5-2.9,1.5-3.9,2.9-2,5.5-3l30.9-11.1c4-1.5,7.2-2.5,9.6-3.1,2.4-.6,4.4-.9,6-.9,3.4,0,6,.9,7.6,2.7,1.7,1.8,2.5,4.2,2.5,7.1ZM587.8,205c-8.7,0-15.6-2.2-20.6-6.6-5.1-4.4-7.6-10.2-7.6-17.5s2.5-12.6,7.6-17c5.1-4.3,12-6.5,20.6-6.5s15.3,2.2,20.4,6.5,7.7,10,7.7,17-2.6,13.1-7.7,17.5c-5.1,4.4-11.9,6.6-20.4,6.6Z"/>
      <path class="st0" d="M711.3,239.2l2.4,37.4v82.3c0,3,.6,5.2,1.8,6.6,1.2,1.4,3.3,2.4,6.4,2.9l13.8,2.1c2.5.4,4.3,1.2,5.4,2.2,1.1,1.1,1.7,2.6,1.7,4.7s-.7,3.5-2.1,4.7c-1.4,1.2-3.5,1.8-6.4,1.8h-74.7c-2.9,0-5-.6-6.3-1.8-1.3-1.2-2-2.7-2-4.5s.5-2.9,1.4-3.9c.9-1,2.3-1.9,4.3-2.7l6.4-1.6c1.9-.6,3.3-1.7,4.3-3.2.9-1.5,1.4-3.8,1.4-6.9v-93.5c0-2.6-.4-4.4-1.2-5.5s-2.1-1.8-3.8-2.2l-8.7-.6c-1.8-.4-3.1-1.1-3.9-2-.8-.9-1.2-2.1-1.2-3.5s.5-3.1,1.4-4.2c1-1.1,2.8-2.1,5.6-3.1l30.2-10.6c5-1.9,8.7-3.2,11-3.8,2.3-.6,4.2-.9,5.5-.9,2.2,0,3.9.8,5.1,2.2,1.1,1.5,1.9,4,2.3,7.6ZM708.3,299.1c0-15.5,2.2-28.5,6.7-39,4.4-10.4,10.2-18.3,17.3-23.5,7.1-5.2,14.7-7.9,22.8-7.9s17.8,2.9,23.3,8.6c5.5,5.7,8.2,13.9,8.2,24.5s-2,16.8-5.9,21.5c-3.9,4.7-9,7-15.3,7s-11.1-1.7-14.5-5.1c-3.3-3.4-5-8.1-5-14.2v-5.9c0-3.2-.8-5.6-2.3-7.3-1.6-1.7-4-2.5-7.3-2.5s-7.5,1.5-10.8,4.6c-3.4,3.1-6.2,7.8-8.4,14.1-2.2,6.4-3.3,14.5-3.3,24.3l-5.5.8Z"/>
    </g>
    <circle class="st1" cx="823.8" cy="353.7" r="30.1"/>
  </g>
</svg>